<svg width="151" height="124" viewBox="0 0 151 124" fill="none" xmlns="http://www.w3.org/2000/svg">
<path d="M135.139 31.1763C135.23 32.4953 135.23 33.8143 135.23 35.1455C135.23 75.7068 104.3 122.486 47.7416 122.486V122.462C31.0341 122.486 14.6738 117.709 0.608856 108.701C3.03825 108.992 5.47982 109.138 7.92748 109.144C21.7732 109.156 35.2232 104.519 46.1159 95.9784C32.9582 95.7292 21.4201 87.1647 17.3893 74.6614C21.9985 75.5488 26.7477 75.3665 31.2716 74.1325C16.9266 71.2392 6.60624 58.6568 6.60624 44.0443C6.60624 43.9106 6.60624 43.7829 6.60624 43.6553C10.8805 46.0319 15.6662 47.351 20.5616 47.4968C7.05071 38.4825 2.88603 20.539 11.0449 6.50999C26.6564 25.6874 49.6899 37.3459 74.4162 38.5798C71.9381 27.9182 75.3234 16.7461 83.3118 9.25136C95.6962 -2.3706 115.174 -1.77492 126.816 10.5825C133.702 9.22705 140.302 6.7045 146.342 3.13038C144.047 10.2361 139.243 16.2719 132.825 20.1074C138.92 19.3902 144.875 17.7612 150.482 15.2751C146.354 21.4508 141.155 26.8302 135.139 31.1763Z" fill="white"/>
</svg>
